<svg width="64" height="64" viewBox="0 0 64 64" fill="none" xmlns="http://www.w3.org/2000/svg">
<path d="M60.67 35.16C60.4515 34.6112 60.1259 34.1114 59.7123 33.6897C59.2986 33.268 58.8051 32.9329 58.2606 32.7039C57.7161 32.4749 57.1314 32.3567 56.5407 32.356C55.95 32.3553 55.365 32.4723 54.82 32.7L42.09 37.18C42.1336 36.9289 42.157 36.6748 42.16 36.42C42.16 35.2849 41.7091 34.1962 40.9064 33.3936C40.1038 32.5909 39.0151 32.14 37.88 32.14H34.58C31.6411 32.1216 28.751 31.3871 26.16 30C23.2772 28.4821 20.068 27.6893 16.81 27.69H11.81V24.18C11.81 23.9148 11.7046 23.6604 11.5171 23.4729C11.3296 23.2854 11.0752 23.18 10.81 23.18H5V8.43C5.00264 7.52112 5.36486 6.65022 6.00754 6.00754C6.65022 5.36486 7.52112 5.00264 8.43 5H33.07C33.9789 5.00264 34.8498 5.36486 35.4925 6.00754C36.1351 6.65022 36.4974 7.52112 36.5 8.43V28.43C36.5 28.6952 36.6054 28.9496 36.7929 29.1371C36.9804 29.3246 37.2348 29.43 37.5 29.43C37.7652 29.43 38.0196 29.3246 38.2071 29.1371C38.3946 28.9496 38.5 28.6952 38.5 28.43V8.43C38.4974 6.99069 37.9244 5.61108 36.9067 4.59333C35.8889 3.57558 34.5093 3.00264 33.07 3H8.43C6.99069 3.00264 5.61108 3.57558 4.59333 4.59333C3.57558 5.61108 3.00264 6.99069 3 8.43V55.57C3.00264 57.0093 3.57558 58.3889 4.59333 59.4067C5.61108 60.4244 6.99069 60.9974 8.43 61H33.07C34.5093 60.9974 35.8889 60.4244 36.9067 59.4067C37.9244 58.3889 38.4974 57.0093 38.5 55.57V53.57C38.5 53.3048 38.3946 53.0504 38.2071 52.8629C38.0196 52.6754 37.7652 52.57 37.5 52.57C37.2348 52.57 36.9804 52.6754 36.7929 52.8629C36.6054 53.0504 36.5 53.3048 36.5 53.57V55.57C36.4974 56.4789 36.1351 57.3498 35.4925 57.9925C34.8498 58.6351 33.9789 58.9974 33.07 59H8.43C7.52112 58.9974 6.65022 58.6351 6.00754 57.9925C5.36486 57.3498 5.00264 56.4789 5 55.57V49.68H10.81C11.0752 49.68 11.3296 49.5746 11.5171 49.3871C11.7046 49.1996 11.81 48.9452 11.81 48.68V46.43C13.6057 46.5078 15.3807 46.8446 17.08 47.43L22.22 49.24C24.8546 50.1667 27.6272 50.6401 30.42 50.64C30.77 50.64 31.11 50.64 31.42 50.64C34.4145 50.5096 37.3598 49.8318 40.11 48.64L58.54 40.76C59.5269 40.2576 60.2916 39.406 60.6853 38.3709C61.079 37.3358 61.0736 36.1913 60.67 35.16ZM9.81 47.68H5V25.18H9.81V47.68ZM57.73 39L39.36 46.85C34.1254 49.0773 28.2469 49.2664 22.88 47.38L17.74 45.57C15.8294 44.9031 13.8316 44.5191 11.81 44.43V29.73H16.81C19.7409 29.7283 22.6278 30.4423 25.22 31.81C28.1049 33.3341 31.3172 34.1338 34.58 34.14H37.88C38.1803 34.14 38.4776 34.1993 38.7548 34.3145C39.0321 34.4297 39.2839 34.5986 39.4958 34.8113C39.7076 35.0241 39.8753 35.2766 39.9893 35.5544C40.1033 35.8322 40.1613 36.1297 40.16 36.43C40.1604 36.7553 40.0899 37.0768 39.9535 37.3721C39.8171 37.6674 39.6179 37.9294 39.37 38.14L37.69 38.73H26.78C26.5148 38.73 26.2604 38.8354 26.0729 39.0229C25.8854 39.2104 25.78 39.4648 25.78 39.73C25.78 39.9952 25.8854 40.2496 26.0729 40.4371C26.2604 40.6246 26.5148 40.73 26.78 40.73H37.88C37.9399 40.7354 38.0001 40.7354 38.06 40.73C38.1093 40.7415 38.1607 40.7415 38.21 40.73H38.28L55.55 34.65C56.1035 34.4973 56.6929 34.5413 57.2175 34.7747C57.7422 35.008 58.1696 35.4162 58.4268 35.9295C58.6841 36.4429 58.7553 37.0296 58.6282 37.5895C58.5011 38.1495 58.1837 38.648 57.73 39Z" fill="white"/>
<path d="M48.9 22.8H50.29C50.4909 22.7945 50.686 22.8678 50.8336 23.0042C50.9812 23.1406 51.0696 23.3293 51.08 23.53C51.0797 23.6269 51.0601 23.7228 51.0223 23.8121C50.9845 23.9014 50.9293 23.9822 50.86 24.05C50.7038 24.1914 50.5007 24.2698 50.29 24.27H47.66C47.3948 24.27 47.1404 24.3753 46.9529 24.5629C46.7653 24.7504 46.66 25.0048 46.66 25.27C46.66 25.5352 46.7653 25.7895 46.9529 25.9771C47.1404 26.1646 47.3948 26.27 47.66 26.27H48.59V27.27C48.59 27.5352 48.6953 27.7895 48.8829 27.9771C49.0704 28.1646 49.3248 28.27 49.59 28.27C49.8552 28.27 50.1096 28.1646 50.2971 27.9771C50.4846 27.7895 50.59 27.5352 50.59 27.27V26.27C51.2682 26.2101 51.8996 25.899 52.3603 25.3976C52.8209 24.8963 53.0776 24.2408 53.08 23.56C53.0761 23.1975 53.0008 22.8394 52.8585 22.506C52.7161 22.1727 52.5095 21.8706 52.2504 21.6171C51.9914 21.3636 51.6849 21.1636 51.3485 21.0285C51.0121 20.8935 50.6524 20.826 50.29 20.83H48.9C48.6974 20.8354 48.5009 20.7607 48.353 20.6222C48.2051 20.4837 48.1178 20.2925 48.11 20.09C48.1081 19.9942 48.1267 19.8991 48.1646 19.8111C48.2026 19.7231 48.259 19.6443 48.33 19.58C48.4045 19.505 48.4934 19.446 48.5914 19.4065C48.6894 19.3669 48.7944 19.3477 48.9 19.35H51.53C51.7952 19.35 52.0496 19.2446 52.2371 19.0571C52.4246 18.8695 52.53 18.6152 52.53 18.35C52.53 18.0848 52.4246 17.8304 52.2371 17.6429C52.0496 17.4553 51.7952 17.35 51.53 17.35H50.59V16.35C50.59 16.0848 50.4846 15.8304 50.2971 15.6429C50.1096 15.4553 49.8552 15.35 49.59 15.35C49.3248 15.35 49.0704 15.4553 48.8829 15.6429C48.6953 15.8304 48.59 16.0848 48.59 16.35V17.35C47.9704 17.4114 47.3894 17.679 46.94 18.11C46.6782 18.3629 46.4698 18.6659 46.3273 19.0008C46.1847 19.3358 46.1108 19.6959 46.11 20.06C46.1179 20.7929 46.416 21.4928 46.9389 22.0064C47.4619 22.5199 48.167 22.8053 48.9 22.8Z" fill="white"/>
<path d="M49.59 31.06C51.4214 31.06 53.2117 30.5169 54.7345 29.4994C56.2573 28.4819 57.4442 27.0357 58.1451 25.3436C58.8459 23.6516 59.0293 21.7897 58.672 19.9934C58.3147 18.1972 57.4328 16.5472 56.1378 15.2522C54.8427 13.9571 53.1928 13.0752 51.3965 12.7179C49.6002 12.3606 47.7384 12.544 46.0463 13.2449C44.3543 13.9457 42.908 15.1326 41.8905 16.6554C40.873 18.1782 40.33 19.9685 40.33 21.8C40.3326 24.2551 41.3091 26.6089 43.0451 28.3449C44.7811 30.0809 47.1349 31.0573 49.59 31.06ZM49.59 14.54C51.0258 14.54 52.4295 14.9658 53.6234 15.7635C54.8173 16.5613 55.7478 17.6951 56.2973 19.0217C56.8468 20.3483 56.9906 21.808 56.7105 23.2163C56.4303 24.6246 55.7389 25.9182 54.7235 26.9336C53.7082 27.9489 52.4146 28.6404 51.0063 28.9205C49.598 29.2006 48.1383 29.0568 46.8117 28.5073C45.4851 27.9579 44.3512 27.0273 43.5535 25.8334C42.7557 24.6395 42.33 23.2359 42.33 21.8C42.33 19.8745 43.0948 18.0279 44.4564 16.6664C45.8179 15.3049 47.6645 14.54 49.59 14.54Z" fill="white"/>
<path d="M18.58 6.71997C18.4486 6.71997 18.3186 6.74584 18.1973 6.79609C18.0759 6.84635 17.9657 6.92001 17.8728 7.01286C17.78 7.10572 17.7063 7.21596 17.6561 7.33729C17.6058 7.45861 17.58 7.58865 17.58 7.71997C17.58 7.85129 17.6058 7.98133 17.6561 8.10265C17.7063 8.22398 17.78 8.33422 17.8728 8.42708C17.9657 8.51994 18.0759 8.5936 18.1973 8.64385C18.3186 8.69411 18.4486 8.71997 18.58 8.71997H23.08C23.3452 8.71997 23.5995 8.61461 23.7871 8.42708C23.9746 8.23954 24.08 7.98519 24.08 7.71997C24.08 7.45475 23.9746 7.2004 23.7871 7.01286C23.5995 6.82533 23.3452 6.71997 23.08 6.71997H18.58Z" fill="white"/>
<path d="M17.28 53.56C17.282 54.2617 17.4919 54.9471 17.8832 55.5295C18.2744 56.112 18.8296 56.5655 19.4784 56.8326C20.1273 57.0998 20.8407 57.1687 21.5287 57.0306C22.2167 56.8925 22.8483 56.5536 23.3438 56.0567C23.8392 55.5598 24.1764 54.9273 24.3125 54.2389C24.4487 53.5505 24.3778 52.8373 24.1088 52.1892C23.8399 51.5411 23.3848 50.9872 22.8013 50.5976C22.2177 50.208 21.5317 50 20.83 50C19.8876 50.0026 18.9847 50.3789 18.3192 51.0462C17.6537 51.7136 17.28 52.6176 17.28 53.56ZM22.38 53.56C22.3781 53.8661 22.2855 54.1648 22.114 54.4184C21.9424 54.672 21.6997 54.8691 21.4163 54.9849C21.1329 55.1006 20.8216 55.1299 20.5216 55.069C20.2215 55.0081 19.9463 54.8597 19.7305 54.6425C19.5148 54.4253 19.3681 54.1491 19.3091 53.8487C19.2501 53.5483 19.2814 53.2372 19.399 52.9546C19.5166 52.6719 19.7153 52.4304 19.9699 52.2605C20.2246 52.0907 20.5239 52 20.83 52C21.0344 52 21.2368 52.0404 21.4255 52.1189C21.6142 52.1975 21.7855 52.3125 21.9296 52.4575C22.0737 52.6025 22.1876 52.7746 22.2649 52.9638C22.3422 53.153 22.3813 53.3556 22.38 53.56Z" fill="white"/>
</svg>
